HIERARCHY
ROOT Hips
{
    OFFSET 0.000000 0.000000 0.000000
    CHANNELS 6 Xposition Yposition Zposition Zrotation Xrotation Yrotation
    JOINT Spine
    {
        OFFSET -0.000000 14.517291 0.000000
        CHANNELS 3 Zrotation Xrotation Yrotation
        JOINT Spine1
        {
            OFFSET -0.000000 37.558300 0.000000
            CHANNELS 3 Zrotation Xrotation Yrotation
            JOINT Neck
            {
                OFFSET -0.000000 37.404057 3.400369
                CHANNELS 3 Zrotation Xrotation Yrotation
                JOINT Head
                {
                    OFFSET -0.000000 24.785618 -3.540803
                    CHANNELS 3 Zrotation Xrotation Yrotation
                    End Site
                    {
                        OFFSET -0.000000 35.408028 0.000000
                    }
                }
            }
            JOINT LeftShoulder
            {
                OFFSET 6.992933 33.973492 -0.192664
                CHANNELS 3 Zrotation Xrotation Yrotation
                JOINT LeftArm
                {
                    OFFSET 21.527611 0.000000 0.000000
                    CHANNELS 3 Zrotation Xrotation Yrotation
                    JOINT LeftForeArm
                    {
                        OFFSET 56.353916 0.000000 0.000000
                        CHANNELS 3 Zrotation Xrotation Yrotation
                        JOINT LeftHand
                        {
                            OFFSET 47.774071 0.000000 0.000000
                            CHANNELS 3 Zrotation Xrotation Yrotation
                            End Site
                            {
                                OFFSET 26.556021 0.000000 0.000000
                            }
                        }
                    }
                }
            }
            JOINT RightShoulder
            {
                OFFSET -7.065357 33.973492 -0.192664
                CHANNELS 3 Zrotation Xrotation Yrotation
                JOINT RightArm
                {
                    OFFSET -21.527611 0.000000 0.000000
                    CHANNELS 3 Zrotation Xrotation Yrotation
                    JOINT RightForeArm
                    {
                        OFFSET -56.353916 0.000000 0.000000
                        CHANNELS 3 Zrotation Xrotation Yrotation
                        JOINT RightHand
                        {
                            OFFSET -47.774071 0.000000 0.000000
                            CHANNELS 3 Zrotation Xrotation Yrotation
                            End Site
                            {
                                OFFSET -26.556021 0.000000 0.000000
                            }
                        }
                    }
                }
            }
        }
    }
    JOINT LeftUpLeg
    {
        OFFSET 17.704014 0.000000 0.000000
        CHANNELS 3 Zrotation Xrotation Yrotation
        JOINT LeftLeg
        {
            OFFSET -0.000000 -81.181816 0.000000
            CHANNELS 3 Zrotation Xrotation Yrotation
            JOINT LeftFoot
            {
                OFFSET -0.000000 -62.821102 0.000000
                CHANNELS 3 Zrotation Xrotation Yrotation
                JOINT LeftToeBase
                {
                    OFFSET -0.000000 -11.507608 26.556021
                    CHANNELS 3 Zrotation Xrotation Yrotation
                    End Site
                    {
                        OFFSET -0.000000 0.000000 7.081605
                    }
                }
            }
        }
    }
    JOINT RightUpLeg
    {
        OFFSET -17.704014 0.000000 0.000000
        CHANNELS 3 Zrotation Xrotation Yrotation
        JOINT RightLeg
        {
            OFFSET -0.000000 -81.181816 0.000000
            CHANNELS 3 Zrotation Xrotation Yrotation
            JOINT RightFoot
            {
                OFFSET -0.000000 -62.821102 0.000000
                CHANNELS 3 Zrotation Xrotation Yrotation
                JOINT RightToeBase
                {
                    OFFSET -0.000000 -11.507608 26.556021
                    CHANNELS 3 Zrotation Xrotation Yrotation
                    End Site
                    {
                        OFFSET -0.000000 0.000000 7.081605
                    }
                }
            }
        }
    }
}
MOTION
Frames:    12
Frame Time:    0.008333
-8.814462    157.921570    -91.351410    -3.665183    -6.163216    48.478035    -0.439090    -2.678490    0.031914    -7.253920    0.817960    0.061087    4.359663    8.556711    -21.146742    17.478947    -4.055854    -19.353884    9.200187    5.078383    -20.372107    -21.977280    15.708752    -67.292442    -13.839166    -5.494445    -130.856201    -8.195222    -33.652473    -12.378495    -16.302582    -6.947921    -3.957567    12.749725    -27.199818    48.992462    -6.197019    -2.066707    13.791573    -9.030788    -4.097012    34.188137    23.948023    0.564177    -3.691031    -9.810823    23.888475    -19.754650    -3.503884    -24.423241    41.325512    0.000000    0.000000    0.000000    -10.689077    -14.012478    -22.591824    5.055210    17.199429    -18.966549    7.206292    9.112101    -10.218834    0.000000    0.000000    0.000000    
-8.817324    157.922699    -91.342735    -3.673208    -6.167573    48.479313    -0.442558    -2.674745    0.012513    -7.232967    0.804768    0.061983    4.357495    8.532746    -21.132658    17.465969    -4.004271    -19.349834    9.210039    5.061853    -20.374811    -21.975166    15.704731    -67.322357    -13.823912    -5.466202    -130.893768    -8.043845    -33.628567    -12.498311    -16.295460    -6.945818    -3.951271    12.749601    -27.194660    49.000393    -6.202659    -2.082242    13.812043    -9.030388    -4.108730    34.167282    23.959427    0.559747    -3.681063    -9.807901    23.895489    -19.762152    -3.516826    -24.427809    41.321987    0.000000    0.000000    0.000000    -10.674739    -14.005961    -22.575045    5.058065    17.184515    -18.964401    7.205904    9.109495    -10.230868    0.000000    0.000000    0.000000    
-8.817385    157.924896    -91.336670    -3.676985    -6.171918    48.474640    -0.437680    -2.661890    0.010754    -7.227489    0.785077    0.057701    4.365701    8.536090    -21.128246    17.458897    -3.987561    -19.349382    9.221903    5.053957    -20.392061    -21.960276    15.707138    -67.342155    -13.805367    -5.484107    -130.932388    -7.991379    -33.633751    -12.530729    -16.288391    -6.940649    -3.948675    12.757299    -27.199995    49.005489    -6.203388    -2.072546    13.826782    -9.000710    -4.089503    34.173088    23.964884    0.561524    -3.713087    -9.827993    23.889484    -19.704065    -3.521632    -24.435200    41.317078    0.000000    0.000000    0.000000    -10.663210    -14.002253    -22.554562    5.062039    17.174044    -18.959131    7.213728    9.106147    -10.265391    0.000000    0.000000    0.000000    
-8.819907    157.928619    -91.326935    -3.678444    -6.181947    48.483799    -0.443485    -2.651257    0.000409    -7.206261    0.778899    0.046243    4.365501    8.536484    -21.131405    17.464338    -3.964436    -19.355228    9.251580    5.098052    -20.341677    -21.926405    15.682261    -67.448761    -13.813254    -5.515405    -130.938934    -7.918287    -33.686779    -12.524362    -16.286016    -6.945350    -3.943095    12.784403    -27.226988    49.016285    -6.180381    -2.042896    13.843967    -9.027732    -4.072539    34.200691    23.979713    0.557868    -3.744720    -9.837844    23.897001    -19.717258    -3.529160    -24.444817    41.341442    0.000000    0.000000    0.000000    -10.649055    -13.983650    -22.559944    5.061536    17.156162    -18.942154    7.215235    9.103707    -10.282167    0.000000    0.000000    0.000000    
-8.822594    157.930649    -91.317238    -3.689848    -6.188325    48.483776    -0.443146    -2.651006    -0.003642    -7.183044    0.769757    0.041631    4.338774    8.525721    -21.125172    17.498173    -3.929444    -19.346655    9.227336    5.050448    -20.391727    -21.956070    15.689788    -67.400124    -13.826235    -5.480978    -130.975693    -7.722947    -33.730766    -12.417839    -16.289526    -6.949663    -3.939805    12.790174    -27.210865    49.014050    -6.194736    -2.048402    13.860689    -9.015460    -4.071820    34.203876    23.999079    0.555863    -3.777191    -9.858617    23.891171    -19.698988    -3.505331    -24.429924    41.360115    0.000000    0.000000    0.000000    -10.628389    -13.977642    -22.542564    5.064512    17.133278    -18.954901    7.199059    9.109294    -10.289050    0.000000    0.000000    0.000000    
-8.826667    157.934967    -91.311462    -3.696867    -6.187696    48.485355    -0.448727    -2.650574    -0.013632    -7.173380    0.761060    0.043331    4.366073    8.516039    -21.124800    17.472975    -3.910216    -19.355829    9.258629    5.092421    -20.343391    -21.937693    15.666563    -67.500031    -13.826442    -5.518524    -130.967499    -7.582185    -33.773502    -12.365663    -16.268099    -6.947347    -3.940226    12.783523    -27.215784    49.017696    -6.185717    -2.051298    13.870146    -9.015708    -4.074927    34.198864    24.005327    0.546587    -3.816869    -9.874125    23.890066    -19.662651    -3.521371    -24.440350    41.367630    0.000000    0.000000    0.000000    -10.616410    -13.972083    -22.535759    5.063641    17.111872    -18.944008    7.196461    9.106533    -10.302717    0.000000    0.000000    0.000000    
-8.830304    157.940369    -91.304001    -3.704771    -6.193833    48.486465    -0.441770    -2.649920    -0.013464    -7.168489    0.760224    0.035886    4.363804    8.510823    -21.127073    17.491371    -3.897455    -19.357075    9.262907    5.079237    -20.334656    -21.951794    15.669209    -67.518425    -13.836766    -5.539586    -130.977936    -7.520698    -33.825294    -12.333949    -16.269485    -6.940271    -3.941040    12.797933    -27.212925    49.019375    -6.199146    -2.056631    13.879094    -8.993805    -4.071456    34.199852    24.020338    0.547388    -3.834116    -9.885180    23.880714    -19.654287    -3.503882    -24.419533    41.370548    0.000000    0.000000    0.000000    -10.599030    -13.958107    -22.525612    5.068515    17.079496    -18.943184    7.184424    9.111125    -10.303162    0.000000    0.000000    0.000000    
-8.832757    157.947235    -91.300301    -3.710235    -6.193961    48.485786    -0.443531    -2.646765    -0.013476    -7.156422    0.751082    0.030355    4.358848    8.513323    -21.134235    17.507259    -3.887041    -19.363018    9.261451    5.079439    -20.325649    -21.954552    15.670240    -67.543053    -13.835571    -5.577678    -130.992722    -7.410549    -33.877129    -12.275745    -16.267054    -6.937654    -3.929946    12.766537    -27.178577    48.993382    -6.227373    -2.070573    13.882863    -9.007680    -4.085364    34.192566    24.021263    0.547929    -3.840635    -9.882678    23.865526    -19.627831    -3.518603    -24.409180    41.367073    0.000000    0.000000    0.000000    -10.589443    -13.953223    -22.526905    5.066468    17.058613    -18.951540    7.180841    9.136144    -10.298352    0.000000    0.000000    0.000000    
-8.832456    157.948822    -91.296532    -3.713405    -6.191522    48.489189    -0.440129    -2.645731    -0.023256    -7.155881    0.743607    0.037233    4.348309    8.504153    -21.136339    17.529476    -3.870494    -19.363592    9.258904    5.076640    -20.314274    -21.953072    15.680036    -67.564178    -13.826875    -5.625768    -131.005722    -7.320171    -33.918224    -12.239625    -16.270723    -6.928193    -3.938518    12.786108    -27.187243    49.000927    -6.220529    -2.067947    13.886705    -8.999187    -4.079678    34.180382    24.023149    0.553423    -3.843391    -9.879481    23.846464    -19.656303    -3.515364    -24.407839    41.384808    0.000000    0.000000    0.000000    -10.585052    -13.943357    -22.536734    5.066567    17.032320    -18.950140    7.148573    9.144577    -10.281590    0.000000    0.000000    0.000000    
-8.835203    157.954788    -91.296570    -3.721759    -6.185006    48.488766    -0.438130    -2.648599    -0.023183    -7.152334    0.739632    0.033125    4.331481    8.490396    -21.139364    17.561148    -3.853843    -19.363262    9.261008    5.072382    -20.304295    -21.973143    15.677415    -67.573021    -13.820232    -5.647678    -131.020584    -7.262501    -33.939182    -12.220469    -16.261518    -6.925977    -3.942321    12.770609    -27.177773    48.998089    -6.230171    -2.050830    13.880653    -9.012522    -4.064862    34.168396    24.018787    0.547774    -3.819296    -9.858541    23.837671    -19.673973    -3.538683    -24.411867    41.386883    0.000000    0.000000    0.000000    -10.578881    -13.943542    -22.548948    5.057779    17.008329    -18.929411    7.157711    9.154386    -10.286006    0.000000    0.000000    0.000000    
-8.836751    157.959518    -91.293648    -3.719642    -6.189708    48.488937    -0.430224    -2.631439    -0.022944    -7.154046    0.729661    0.037110    4.323683    8.483857    -21.153137    17.579062    -3.853148    -19.374529    9.258536    5.067217    -20.303120    -21.979498    15.678905    -67.574905    -13.810444    -5.679449    -131.047134    -7.190544    -33.971951    -12.174417    -16.269743    -6.941339    -3.951723    12.768238    -27.156797    48.983402    -6.222679    -2.076571    13.892067    -8.982915    -4.080966    34.160530    24.020517    0.559954    -3.809031    -9.850464    23.822903    -19.688828    -3.531900    -24.401201    41.389175    0.000000    0.000000    0.000000    -10.569488    -13.926781    -22.536949    5.059465    16.980476    -18.950569    7.167849    9.166784    -10.289582    0.000000    0.000000    0.000000    
-8.839926    157.963638    -91.297318    -3.729175    -6.181334    48.484806    -0.424868    -2.634947    -0.012929    -7.151334    0.722020    0.031197    4.306841    8.501008    -21.156593    17.617853    -3.876804    -19.366102    9.251775    5.072499    -20.310789    -22.009235    15.660225    -67.556923    -13.796732    -5.686290    -131.064377    -7.172717    -33.963081    -12.171885    -16.270947    -6.941697    -3.943744    12.743282    -27.135031    48.956188    -6.234803    -2.089958    13.890295    -8.944956    -4.078211    34.124836    24.014101    0.548346    -3.786101    -9.832985    23.823706    -19.695837    -3.545108    -24.395063    41.379536    0.000000    0.000000    0.000000    -10.564883    -13.929978    -22.527981    5.064542    16.949181    -18.959879    7.145471    9.190875    -10.284666    0.000000    0.000000    0.000000    
